# xmcd
#
# Track frame offsets: 
#        150
#        12806
#        23346
#        34603
#        46045
#        57858
#        68855
#        83278
#        95703
#        107077
#        120298
#        132542
#        146612
#        160723
#        174301
#        188229
#        198771
#        213284
#        226153
#        238165
#
# Disc length: 3551 seconds
#
# Revision: 0
# Processed by: cddbd v1.5.2PL0 Copyright (c) Steve Scherf et al.
# Submitted via: ExactAudioCopy v0.99pb4
#
DISCID=f30ddd14
DTITLE=Ray Charles - The Classic Blues Sessions - Disc 1
DYEAR=2007
DGENRE=
TTITLE0=Blues Before Sunrise
TTITLE1=I Wonder Who's Kissing Her Now
TTITLE2=Confession Blues
TTITLE3=What Have I Done
TTITLE4=The Sun's Gonna Shine
TTITLE5=I'll Do Anything But Work
TTITLE6=Losing Hand
TTITLE7=Jumpin' In The Morning
TTITLE8=Here I Am (All Alone Again)
TTITLE9=Don't You Know
TTITLE10=It Should Have Been Me
TTITLE11=Walkin' and Talkin'
TTITLE12=Kissa Me Baby
TTITLE13=Baby Let Me Hold Your Hand
TTITLE14=Come Back Baby
TTITLE15=All The Girls In Town
TTITLE16=Funny (But I Still Love You)
TTITLE17=Roll With Me Baby
TTITLE18=Mess Around
TTITLE19=I've Got A Woman
EXTD=
EXTT0=
EXTT1=
EXTT2=
EXTT3=
EXTT4=
EXTT5=
EXTT6=
EXTT7=
EXTT8=
EXTT9=
EXTT10=
EXTT11=
EXTT12=
EXTT13=
EXTT14=
EXTT15=
EXTT16=
EXTT17=
EXTT18=
EXTT19=
PLAYORDER=
